<svg width="48" height="48" viewBox="0 0 48 48" fill="none" xmlns="http://www.w3.org/2000/svg">
  <path d="M8.57153 8.28577C8.57153 6.07663 10.3624 4.28577 12.5715 4.28577H30.8572L39.4287 12.8572V39.7143C39.4287 41.9235 37.6378 43.7143 35.4287 43.7143H12.5715C10.3624 43.7143 8.57153 41.9235 8.57153 39.7143V8.28577Z" fill="#ff8c00"/>
  <path d="M32.8573 12.8572L39.4287 12.8572L30.8573 4.28575L30.8573 10.8572C30.8573 11.9617 31.7527 12.8572 32.8573 12.8572Z" fill="#ffb584"/>
  <g transform="translate(6, 8) scale(1.3)">
    <svg width="48" height="48" viewBox="0 0 48 48" fill="none" xmlns="http://www.w3.org/2000/svg">
        <path d="M12 9a2.5 2.5 0 1 0 0 5 2.5 2.5 0 0 0 0-5zm0 1.333a1.167 1.167 0 1 1 0 2.334 1.167 1.167 0 0 1 0-2.334zM12.667 6h-1.334v1.333H8v1.334h8V7.333h-3.334V6z" fill="white"/>
        <path d="M9.333 14.667H8V18h8v-1.333l-6.667-.001v-2zM12 14.333a1 1 0 1 0 0 2 1 1 0 0 0 0-2z" fill="white"/>
    </svg>
  </g>
</svg>